<svg id="g10" xmlns="http://www.w3.org/2000/svg" xmlns:xlink="http://www.w3.org/1999/xlink" width="3526.466" height="793.534" viewBox="0 0 3526.466 793.534">
  <defs>
    <clipPath id="clip-path">
      <path id="path18" d="M1122.429,0H0V793.534H1122.429V0"/>
    </clipPath>
    <clipPath id="clip-path-5">
      <path id="path924" d="M151.182,170.078H793.7V298.583H151.182Zm257,128.505H536.692V812.6H408.187Z" fill="#fff"/>
    </clipPath>
    <clipPath id="clip-path-6">
      <path id="path934" d="M0,0H3779.991V945.331H0Z" fill="#fff"/>
    </clipPath>
    <clipPath id="clip-path-7">
      <path id="path946" d="M176,310.666H396V421.332H176Z"/>
    </clipPath>
    <clipPath id="clip-path-8">
      <path id="path952" d="M395.338,311.431H176.88L395.338,420.66V311.431"/>
    </clipPath>
    <clipPath id="clip-path-9">
      <path id="path962" d="M0,0H3779.991V945.331H0Z"/>
    </clipPath>
    <clipPath id="clip-path-10">
      <path id="path974" d="M549.332,310.666H788V549.332H549.332Z"/>
    </clipPath>
    <clipPath id="clip-path-11">
      <path id="path980" d="M787.274,311.431H550.155L668.868,548.249,787.274,311.431"/>
    </clipPath>
    <clipPath id="clip-path-13">
      <path id="path1002" d="M549.332,337.332H662.665V788H549.332Z"/>
    </clipPath>
    <clipPath id="clip-path-14">
      <path id="path1008" d="M661.525,562.629,549.54,338.66V786.894L661.525,562.629"/>
    </clipPath>
  </defs>
  <g id="g14">
    <g id="g16" clip-path="url(#clip-path)">
      <g id="g22">
        <g id="g24">
          <path id="path26" d="M1933.328-1942.662v-560h1120V-4742.655h560V-2502.66h1120v560H1933.328" fill="none" stroke="#000" stroke-linecap="round" stroke-linejoin="round" stroke-miterlimit="10" stroke-width="0.192"/>
        </g>
      </g>
    </g>
  </g>
  <g id="g44">
    <g id="g46" clip-path="url(#clip-path)">
      <g id="g52">
        <g id="g54">
          <path id="path56" d="M2045.328-2558.66l952-476v476h-952" fill="none" stroke="#007095" stroke-linecap="round" stroke-linejoin="round" stroke-miterlimit="10" stroke-width="0.192"/>
        </g>
      </g>
    </g>
  </g>
  <g id="g74">
    <g id="g76" clip-path="url(#clip-path)">
      <g id="g82">
        <g id="g84">
          <path id="path86" d="M3671.991-2558.66l517.332-1032,516,1032H3671.991" fill="none" stroke="#007095" stroke-linecap="round" stroke-linejoin="round" stroke-miterlimit="10" stroke-width="0.192"/>
        </g>
      </g>
    </g>
  </g>
  <g id="g104">
    <g id="g106" clip-path="url(#clip-path)">
      <g id="g112">
        <g id="g114">
          <path id="path116" d="M3669.324-4630.655v1953.329l488-976-488-977.331" fill="none" stroke="#6edddd" stroke-linecap="round" stroke-linejoin="round" stroke-miterlimit="10" stroke-width="0.192"/>
        </g>
      </g>
    </g>
  </g>
  <g id="g916" transform="translate(74.751 -165.188)">
    <g id="g920">
      <g id="g922" clip-path="url(#clip-path-5)">
        <g id="g928">
          <g id="g930">
            <g id="g932" clip-path="url(#clip-path-6)">
              <g id="g938">
                <path id="path940" d="M150.568,169.469H794.311V813.207H150.568Z" fill="#fff"/>
              </g>
            </g>
          </g>
        </g>
      </g>
    </g>
    <g id="g942">
      <g id="g944" clip-path="url(#clip-path-7)">
        <g id="g950" clip-path="url(#clip-path-8)">
          <g id="g956">
            <g id="g958">
              <g id="g960" clip-path="url(#clip-path-9)">
                <g id="g966">
                  <path id="path968" d="M176.27,310.822H395.947V421.27H176.27Z" fill="#006680"/>
                </g>
              </g>
            </g>
          </g>
        </g>
      </g>
    </g>
    <g id="g970">
      <g id="g972" clip-path="url(#clip-path-10)">
        <g id="g978" clip-path="url(#clip-path-11)">
          <g id="g984">
            <g id="g986">
              <g id="g988" clip-path="url(#clip-path-9)">
                <g id="g994">
                  <path id="path996" d="M549.54,310.822H787.883V548.857H549.54Z" fill="#006680"/>
                </g>
              </g>
            </g>
          </g>
        </g>
      </g>
    </g>
    <g id="g998">
      <g id="g1000" clip-path="url(#clip-path-13)">
        <g id="g1006" clip-path="url(#clip-path-14)">
          <g id="g1012">
            <g id="g1014">
              <g id="g1016" clip-path="url(#clip-path-9)">
                <g id="g1022">
                  <path id="path1024" d="M548.931,338.051h113.2V787.509h-113.2Z" fill="#5fbcd3"/>
                </g>
              </g>
            </g>
          </g>
        </g>
      </g>
    </g>
    <g id="g1026">
      <path id="path1028" d="M958.732,499.244V470.2H939.544v-44.4H907.607v44.4H892.024v29.043h15.583V603.16h31.937V499.244Z" fill="#fff"/>
      <path id="path1030" d="M1035.481,497.805V467.078h-2.4c-13.687,0-20.395,3.833-28.791,16.083V470.2H975V603.16h31.916V529.244C1006.919,508.6,1016.295,498.285,1035.481,497.805Z" fill="#fff"/>
      <path id="path1032" d="M1182.794,537.639c0-39.6-30.959-70.561-71.042-70.561-38.645,0-70.312,31.437-70.312,69.6,0,38.4,31.667,69.6,70.541,69.6,38.646,0,70.813-31.208,70.813-68.646Zm-32.167-.957c0,22.312-17.271,40.312-38.4,40.312-21.6,0-38.646-18-38.646-40.792,0-21.833,17.521-39.833,38.4-39.833C1133.357,496.368,1150.628,514.6,1150.628,536.681Z" fill="#fff"/>
      <path id="path1034" d="M1321.19,603.16l-55.209-67.916L1313.5,470.2h-38.167l-42.479,62.646V425.806H1200.94V603.16h31.917V540.993l45.375,62.167Z" fill="#fff"/>
      <path id="path1036" d="M1464.023,603.16V470.2h-29.292v17.751c-11.041-14.625-24.229-20.875-43.437-20.875-39.355,0-67.667,29.52-67.667,70.083,0,40.084,28.063,69.125,66.957,69.125,18.709,0,31.439-6,44.147-20.4V603.16Zm-30.251-65.521c0,22.084-14.4,39.355-38.625,39.355-23.291,0-39.375-15.833-39.375-39.1,0-24.251,16.084-41.521,38.9-41.521C1417.461,496.368,1433.772,513.411,1433.772,537.639Z" fill="#fff"/>
      <path id="path1038" d="M1605.9,603.16V531.889c0-23.771-2.4-35.292-9.6-45.6-8.647-12.48-23.043-19.208-41.521-19.208-15.125,0-25.667,4.561-37.437,15.833V470.2h-29.521V603.16h31.917V540.515c0-17.751,1.208-25.437,5.292-31.917,5.041-7.916,13.437-12.229,23.52-12.229,15.833,0,25.437,6.229,25.437,41.751V603.16Z" fill="#fff"/>
      <path id="path1040" d="M1636.512,519.889h66.5V548.2h-66.5Z" fill="#fff"/>
      <path id="path1042" d="M1867.146,603.16V470.2h-29.291v17.751c-11.043-14.625-24.229-20.875-43.438-20.875-39.353,0-67.667,29.52-67.667,70.083,0,40.084,28.063,69.125,66.958,69.125,18.708,0,31.437-6,44.146-20.4V603.16ZM1836.9,537.639c0,22.084-14.4,39.355-38.625,39.355-23.292,0-39.375-15.833-39.375-39.1,0-24.251,16.083-41.521,38.9-41.521C1820.583,496.368,1836.9,513.411,1836.9,537.639Z" fill="#006680"/>
      <path id="path1044" d="M1951.417,497.805V467.078h-2.395c-13.688,0-20.4,3.833-28.792,16.083V470.2h-29.292V603.16h31.917V529.244C1922.855,508.6,1932.23,498.285,1951.417,497.805Z" fill="#006680"/>
      <path id="path1046" d="M2094.416,559.472h-36c-7.937,12.251-17.041,17.521-30.249,17.521-22.084,0-38.645-17.271-38.645-40.563,0-23.271,15.853-40.063,37.916-40.063,14.417,0,24.479,6,30.979,18.229h36c-10.333-30.479-36.728-47.52-66.979-47.52-39.355,0-70.062,30.479-70.062,69.6,0,38.645,31.667,69.6,71.041,69.6C2059.375,606.285,2083.375,589.244,2094.416,559.472Z" fill="#006680"/>
      <path id="path1048" d="M2234.708,603.16V528.035c0-43.667-20.145-61.187-52.062-61.187-13.687,0-24.249,3.833-33.853,12.479V425.806h-31.917V603.16h31.917V535.723c0-29.292,9.853-39.355,28.083-39.355,18.729,0,25.917,11.043,25.917,38.876V603.16Z" fill="#006680"/>
      <path id="path1050" d="M2292.7,603.16V470.2h-31.916V603.16Zm.25-152.166V419.078H2261.03v31.916Z" fill="#006680"/>
      <path id="path1052" d="M2374.354,499.244V470.2h-19.188v-44.4h-31.937v44.4h-15.584v29.043h15.584V603.16h31.937V499.244Z" fill="#006680"/>
      <path id="path1054" d="M2521.239,538.6c0-41.271-29.042-71.52-68.646-71.52a69.549,69.549,0,0,0-70.062,70.082c0,38.875,31.437,69.125,72,69.125,26.876,0,54.48-15.125,63.354-42.48h-34.812c-8.147,9.605-16.063,13.188-29.272,13.188-18.957,0-32.875-10.083-36.728-26.145h102.978a51.787,51.787,0,0,0,1.188-12.251ZM2489.8,522.764h-73.687c5.041-17.041,18-26.4,36.958-26.4C2472.759,496.368,2485.718,505.723,2489.8,522.764Z" fill="#006680"/>
      <path id="path1056" d="M2673.321,559.472h-36c-7.937,12.251-17.042,17.521-30.249,17.521-22.084,0-38.647-17.271-38.647-40.563,0-23.271,15.855-40.063,37.917-40.063,14.416,0,24.479,6,30.979,18.229h36c-10.333-30.479-36.729-47.52-66.979-47.52-39.354,0-70.062,30.479-70.062,69.6,0,38.645,31.667,69.6,71.041,69.6C2638.28,606.285,2662.28,589.244,2673.321,559.472Z" fill="#006680"/>
      <path id="path1058" d="M2751.7,499.244V470.2H2732.51v-44.4h-31.937v44.4h-15.584v29.043h15.584V603.16h31.937V499.244Z" fill="#006680"/>
      <path id="path1060" d="M2886.28,603.16V470.2h-31.917v62.647c0,17.749-1.437,25.916-5.041,31.916-4.792,7.667-13.437,12.229-24.229,12.229-15.353,0-25.208-6.479-25.208-41.749V470.2h-31.917v71.27c0,46.813,19.688,64.813,50.646,64.813,16.083,0,26.145-4.084,38.145-15.855V603.16Z" fill="#006680"/>
      <path id="path1062" d="M2972.353,497.805V467.078h-2.4c-13.688,0-20.4,3.833-28.792,16.083V470.2h-29.292V603.16h31.917V529.244C2943.79,508.6,2953.165,498.285,2972.353,497.805Z" fill="#006680"/>
      <path id="path1064" d="M3117.019,538.6c0-41.271-29.043-71.52-68.647-71.52a69.549,69.549,0,0,0-70.063,70.082c0,38.875,31.437,69.125,72,69.125,26.876,0,54.48-15.125,63.354-42.48h-34.812c-8.147,9.605-16.063,13.188-29.272,13.188-18.957,0-32.875-10.083-36.728-26.145h102.978a51.787,51.787,0,0,0,1.188-12.251Zm-31.439-15.833h-73.687c5.042-17.041,18-26.4,36.959-26.4C3068.539,496.368,3081.5,505.723,3085.58,522.764Z" fill="#006680"/>
      <path id="path1066" d="M3142.123,572.431h31.937V603.16h-31.937Z"/>
      <path id="path1068" d="M3336.132,559.472h-36c-7.937,12.251-17.041,17.521-30.249,17.521-22.084,0-38.645-17.271-38.645-40.563,0-23.271,15.853-40.063,37.916-40.063,14.417,0,24.479,6,30.979,18.229h36c-10.333-30.479-36.728-47.52-66.979-47.52-39.355,0-70.062,30.479-70.062,69.6,0,38.645,31.667,69.6,71.041,69.6C3301.091,606.285,3325.09,589.244,3336.132,559.472Z"/>
      <path id="path1070" d="M3451.715,603.16V574.6H3388.59l58.563-75.833V470.2h-90v28.563h51.833L3350.424,574.6V603.16Z"/>
    </g>
  </g>
</svg>
